<svg width="26" height="26" viewBox="0 0 26 26" fill="none" xmlns="http://www.w3.org/2000/svg">
<path d="M0.116211 8.27438C0.201143 7.67457 0.265853 7.07133 0.373807 6.47588C0.985752 3.10318 3.37349 0.80846 6.78756 0.690862C10.8982 0.54962 15.0213 0.542153 19.1313 0.69024C22.8472 0.824015 25.5382 3.57544 25.6543 7.29253C25.7778 11.2395 25.7778 15.1962 25.6543 19.1432C25.5382 22.8603 22.8481 25.6114 19.1316 25.7455C15.0216 25.8939 10.8976 25.8976 6.78787 25.7433C3.0714 25.6036 0.502293 22.846 0.25372 19.1233C0.232253 18.8013 0.163188 18.4821 0.116211 18.1616C0.116211 14.8658 0.116211 11.5699 0.116211 8.27438ZM12.935 23.5425C14.816 23.5425 16.6988 23.5988 18.5772 23.5295C21.5225 23.4203 23.334 21.6625 23.4028 18.7201C23.488 15.0537 23.488 11.3823 23.4028 7.71563C23.334 4.77382 21.5212 2.975 18.5772 2.91247C14.8405 2.83345 11.0998 2.83407 7.36311 2.91247C4.44151 2.97376 2.62466 4.73617 2.54533 7.64563C2.44453 11.3584 2.44453 15.0776 2.54533 18.7904C2.62466 21.6995 4.44151 23.4212 7.36342 23.5295C9.21823 23.5985 11.0777 23.5425 12.935 23.5425Z" fill="white"/>
<path d="M12.9317 6.68945C9.32479 6.68945 6.40039 9.61354 6.40039 13.2205C6.40039 16.8278 9.32479 19.7518 12.9317 19.7518C16.539 19.7518 19.4631 16.8278 19.4631 13.2205C19.4631 9.61354 16.539 6.68945 12.9317 6.68945ZM12.9317 17.5032C10.5664 17.5032 8.64906 15.5858 8.64906 13.2205C8.64906 10.8552 10.5664 8.93781 12.9317 8.93781C15.2971 8.93781 17.2144 10.8552 17.2144 13.2205C17.2144 15.5858 15.2971 17.5032 12.9317 17.5032Z" fill="white"/>
<path d="M21.3987 6.39089C21.3987 7.24892 20.703 7.94455 19.845 7.94455C18.987 7.94455 18.291 7.24892 18.291 6.39089C18.291 5.53255 18.987 4.83691 19.845 4.83691C20.703 4.83691 21.3987 5.53255 21.3987 6.39089Z" fill="white"/>
</svg>
