<svg width="23" height="23" viewBox="0 0 23 23" fill="none" xmlns="http://www.w3.org/2000/svg">
<g clip-path="url(#clip0_2_522)">
<path d="M20.4221 3.33398H1.8103C0.877392 3.33398 0.116211 4.09517 0.116211 5.02808V18.1353C0.116211 19.0682 0.877392 19.8294 1.8103 19.8294H20.4221C21.355 19.8294 22.1162 19.0682 22.1162 18.1353V5.02808C22.1162 4.09517 21.355 3.33398 20.4221 3.33398ZM20.1761 4.58715L11.2322 12.2361L2.28836 4.58715H20.1761ZM20.863 18.1353C20.863 18.3766 20.6635 18.5762 20.4221 18.5762H1.8103C1.56895 18.5762 1.36938 18.3766 1.36938 18.1353V5.45044L10.8238 13.5357C10.8284 13.5403 10.8377 13.545 10.8424 13.5496C10.847 13.5542 10.8563 13.5589 10.8609 13.5635C10.8749 13.5728 10.8841 13.5821 10.8981 13.5867C10.9027 13.5914 10.9074 13.5914 10.912 13.596C10.9306 13.6053 10.9491 13.6146 10.9677 13.6239C10.9723 13.6239 10.977 13.6285 10.9816 13.6285C10.9955 13.6331 11.0095 13.6424 11.028 13.6471C11.0327 13.6471 11.0419 13.6517 11.0466 13.6517C11.0605 13.6564 11.0744 13.661 11.0884 13.661C11.093 13.661 11.1023 13.6656 11.1069 13.6656C11.1209 13.6703 11.1394 13.6703 11.1533 13.6749C11.158 13.6749 11.1626 13.6749 11.1673 13.6749C11.1858 13.6749 11.209 13.6796 11.2276 13.6796C11.2462 13.6796 11.2694 13.6796 11.2879 13.6749C11.2926 13.6749 11.2972 13.6749 11.3019 13.6749C11.3158 13.6749 11.3344 13.6703 11.3483 13.6656C11.3529 13.6656 11.3622 13.661 11.3668 13.661C11.3808 13.6564 11.3947 13.6517 11.4086 13.6517C11.4133 13.6517 11.4225 13.6471 11.4272 13.6471C11.4411 13.6424 11.455 13.6378 11.4736 13.6285C11.4782 13.6285 11.4829 13.6239 11.4875 13.6239C11.5061 13.6146 11.5246 13.6053 11.5432 13.596C11.5479 13.5914 11.5525 13.5914 11.5571 13.5867C11.5711 13.5775 11.5803 13.5728 11.5943 13.5635C11.5989 13.5589 11.6082 13.5542 11.6128 13.5496C11.6175 13.545 11.6268 13.5403 11.6314 13.5357L20.863 5.65002V18.1353Z" fill="#62BAAF"/>
</g>
<defs>
<clipPath id="clip0_2_522">
<rect width="22" height="22" fill="white" transform="translate(0.116211 0.582031)"/>
</clipPath>
</defs>
</svg>
