<svg width="19" height="19" viewBox="0 0 19 19" fill="none" xmlns="http://www.w3.org/2000/svg">
<path d="M17.5759 14.231L14.0007 11.8487C13.4767 11.5004 12.7596 11.6177 12.3734 12.1141L11.3322 13.4552C11.2495 13.5621 11.1012 13.5931 10.984 13.5276L10.7841 13.4173C10.1394 13.0657 9.33262 12.6278 7.70535 10.9971C6.07807 9.36982 5.63678 8.56307 5.28512 7.91837L5.1748 7.71841C5.10929 7.60119 5.14032 7.44949 5.2472 7.36675L6.58487 6.32557C7.08133 5.93944 7.1951 5.22233 6.85034 4.6983L4.46804 1.12312C4.10948 0.581842 3.39238 0.423251 2.83731 0.754223L1.3445 1.6506C0.834249 1.95399 0.465355 2.43321 0.303317 3.00207C-0.248302 5.00513 0.155069 8.4562 5.19893 13.5001C7.03306 15.3342 8.79824 16.6926 10.4393 17.5338C11.7942 18.2302 13.0836 18.5818 14.2627 18.5818H14.2868C14.7626 18.5818 15.2349 18.5198 15.6935 18.3957C16.2623 18.2371 16.7415 17.8682 17.0415 17.3579L17.9413 15.8651C18.2757 15.3066 18.1171 14.5895 17.5759 14.231ZM4.35771 8.17004L4.46459 8.36311C4.84727 9.06298 5.3196 9.93178 7.0434 11.6556C8.76721 13.3794 9.63601 13.8517 10.3359 14.2344L10.5289 14.3413C11.0461 14.6309 11.7115 14.4964 12.07 14.0241L13.1112 12.6864C13.2008 12.5727 13.3663 12.5451 13.487 12.6244L17.0587 15.0067C17.1828 15.0894 17.2208 15.2549 17.1415 15.3825L16.2451 16.8787C16.0693 17.1821 15.7866 17.3993 15.4521 17.4958C15.0763 17.5993 14.673 17.651 14.2558 17.651C11.877 17.651 9.05336 16.0306 5.86087 12.8416C1.13419 8.11144 0.717031 5.01548 1.20314 3.2503C1.29968 2.91243 1.51688 2.62973 1.82372 2.4539L3.31653 1.55752C3.36135 1.52994 3.40962 1.51615 3.46133 1.51615C3.55442 1.51615 3.64061 1.56096 3.69232 1.64026L4.98518 3.58472L6.07118 5.21544C6.15047 5.3361 6.12289 5.50159 6.01257 5.59123L4.67489 6.63241C4.20257 6.98751 4.06467 7.6529 4.35771 8.17004Z" fill="#62BAAF"/>
</svg>
