<svg width="30" height="26" viewBox="0 0 30 26" fill="none" xmlns="http://www.w3.org/2000/svg">
<path d="M28.6684 1.26647C28.3141 0.825056 27.7836 0.582031 27.1743 0.582031C26.843 0.582031 26.4921 0.653045 26.1315 0.793494L1.5836 10.3416C0.280868 10.8481 0.105415 11.6083 0.116699 12.0164C0.127983 12.4244 0.345473 13.1733 1.67431 13.6042C1.68228 13.6066 1.69024 13.6091 1.69821 13.6114L6.7901 15.0961L9.5438 23.1195C9.91927 24.2134 10.762 24.8929 11.7435 24.8929C12.3623 24.8929 12.971 24.6286 13.5038 24.1291L16.6533 21.1742L21.2215 24.9222C21.2219 24.9226 21.2226 24.9228 21.223 24.9233L21.2664 24.9589C21.2704 24.9621 21.2746 24.9655 21.2786 24.9686C21.7863 25.3699 22.3406 25.5818 22.882 25.582H22.8822C23.94 25.582 24.7823 24.7842 25.0277 23.5497L29.0498 3.31324C29.2113 2.50098 29.0759 1.77416 28.6684 1.26647ZM8.49352 14.8141L18.3173 9.70042L12.2004 16.3232C12.1001 16.4316 12.0291 16.5644 11.9942 16.7089L10.8147 21.5771L8.49352 14.8141ZM12.3526 22.8553C12.3119 22.8934 12.271 22.9275 12.23 22.9588L13.3243 18.4428L15.3149 20.0761L12.3526 22.8553ZM27.3844 2.96945L23.3623 23.2061C23.3236 23.3998 23.1999 23.8504 22.882 23.8504C22.7249 23.8504 22.5275 23.7632 22.3255 23.6047L17.1491 19.3578C17.1484 19.3572 17.1476 19.3565 17.1467 19.356L14.0666 16.8289L22.9125 7.25146C23.1957 6.94486 23.2214 6.47527 22.9733 6.13846C22.7251 5.80166 22.2753 5.6957 21.9074 5.88732L7.35827 13.4608L2.19713 11.9562L26.7375 2.41103C26.9448 2.33032 27.0895 2.31341 27.1743 2.31341C27.2263 2.31341 27.3187 2.31973 27.353 2.36279C27.3982 2.41892 27.4557 2.61032 27.3844 2.96945Z" fill="white"/>
</svg>
