<svg width="33" height="20" viewBox="0 0 33 20" fill="none" xmlns="http://www.w3.org/2000/svg">
<path d="M16.3094 19.582C20.9387 19.582 19.288 16.7979 19.6453 15.9974C19.64 15.3995 19.6347 14.8244 19.656 14.4748C19.9493 14.5534 20.6413 14.8865 22.0706 16.2064C24.2773 18.3217 24.8413 19.582 26.6239 19.582H29.9052C30.9452 19.582 31.4865 19.1729 31.7572 18.8296C32.0185 18.4978 32.2745 17.9151 31.9945 17.0082C31.2625 14.8244 26.9932 11.0536 26.7279 10.6558C26.7679 10.5824 26.8319 10.4848 26.8653 10.4342H26.8626C27.7052 9.3765 30.9212 4.79876 31.3945 2.96716C31.3959 2.96463 31.3972 2.96083 31.3972 2.95703C31.6532 2.12103 31.4185 1.5789 31.1759 1.27236C30.8105 0.813831 30.2292 0.582031 29.4439 0.582031H26.1626C25.0639 0.582031 24.2306 1.1077 23.8093 2.06656C23.104 3.77023 21.1226 7.27383 19.6373 8.5139C19.592 6.75703 19.6227 5.41563 19.6467 4.41876C19.6947 2.47443 19.8493 0.582031 17.7254 0.582031H12.5681C11.2374 0.582031 9.9641 1.9627 11.3428 3.60176C12.5481 5.03816 11.7761 5.8387 12.0361 9.82363C11.0228 8.7913 9.22011 6.00336 7.94546 2.44023C7.58813 1.4763 7.0468 0.583298 5.52282 0.583298H2.24152C0.910869 0.583298 0.116211 1.27236 0.116211 2.4263C0.116211 5.0179 6.15481 19.582 16.3094 19.582ZM5.52282 2.4833C5.81215 2.4833 5.84148 2.4833 6.05615 3.06216C7.36146 6.71396 10.2894 12.1176 12.4281 12.1176C14.0347 12.1176 14.0347 10.5532 14.0347 9.96423L14.0334 5.27503C13.9454 3.72336 13.3507 2.9507 12.9601 2.48203L17.6374 2.4871C17.64 2.50863 17.6107 7.6741 17.6507 8.92556C17.6507 10.7027 19.136 11.7211 21.4546 9.49177C23.9013 6.8685 25.5933 2.9469 25.6613 2.7873C25.7613 2.5593 25.8479 2.48203 26.1626 2.48203H29.4439H29.4572C29.4559 2.48583 29.4559 2.48963 29.4546 2.49343C29.1546 3.82343 26.1933 8.0617 25.2026 9.37776C25.1866 9.39803 25.1719 9.41957 25.1573 9.4411C24.7213 10.1175 24.3666 10.8648 25.2173 11.9162H25.2186C25.2959 12.0048 25.4973 12.2126 25.7906 12.5014C26.7026 13.3956 29.8306 16.4534 30.1079 17.6694C29.9239 17.6972 29.7239 17.677 26.6239 17.6833C25.9639 17.6833 25.4479 16.746 23.4786 14.8586C21.708 13.2221 20.5587 12.5533 19.512 12.5533C17.48 12.5533 17.628 14.1202 17.6467 16.0151C17.6534 18.0696 17.64 17.4198 17.6547 17.549C17.536 17.5934 17.196 17.682 16.3094 17.682C7.84946 17.682 2.34019 4.92543 2.12819 2.4871C2.20152 2.48076 3.21084 2.48456 5.52282 2.4833Z" fill="white"/>
</svg>
