<svg width="24" height="24" viewBox="0 0 24 24" fill="none" xmlns="http://www.w3.org/2000/svg">
<path fill-rule="evenodd" clip-rule="evenodd" d="M19.7651 3.9245C17.603 1.77021 14.7276 0.583295 11.6643 0.582031C5.35206 0.582031 0.214809 5.69456 0.21227 11.9783C0.211424 13.987 0.73869 15.9478 1.74089 17.6762L0.116211 23.582L6.18711 21.9971C7.85989 22.9053 9.74313 23.3838 11.6597 23.3844H11.6645C17.976 23.3844 23.1138 18.2714 23.1162 11.9874C23.1175 8.94199 21.9274 6.07864 19.7651 3.9245ZM11.6643 21.4596H11.6604C9.95246 21.4589 8.27742 21.0021 6.8158 20.1392L6.46838 19.9338L2.86581 20.8744L3.82739 17.3787L3.601 17.0203C2.64816 15.5121 2.14502 13.7688 2.14586 11.979C2.14784 6.75612 6.41788 2.50693 11.6681 2.50693C14.2105 2.50778 16.6004 3.49437 18.3975 5.28493C20.1945 7.07549 21.1836 9.45551 21.1828 11.9867C21.1805 17.21 16.9107 21.4596 11.6643 21.4596ZM16.8854 14.3649C16.5993 14.2223 15.1924 13.5336 14.93 13.4384C14.668 13.3434 14.477 13.296 14.2864 13.581C14.0955 13.866 13.5473 14.5075 13.3803 14.6975C13.2132 14.8875 13.0465 14.9114 12.7603 14.7688C12.4741 14.6263 11.5522 14.3255 10.4591 13.3553C9.60856 12.6002 9.03432 11.6676 8.86731 11.3827C8.70059 11.0974 8.8659 10.9581 8.99285 10.8015C9.30261 10.4187 9.61279 10.0173 9.70815 9.82737C9.80364 9.6373 9.75583 9.47095 9.68417 9.32846C9.61279 9.18597 9.04053 7.78427 8.80215 7.2139C8.56969 6.65884 8.33398 6.7338 8.15823 6.7251C7.9915 6.71681 7.80065 6.71513 7.6098 6.71513C7.41909 6.71513 7.10905 6.7863 6.84669 7.07156C6.58447 7.35667 5.84533 8.04552 5.84533 9.44722C5.84533 10.8489 6.87067 12.203 7.0137 12.3931C7.15673 12.5832 9.0315 15.4596 11.9018 16.693C12.5846 16.9867 13.1175 17.1617 13.5332 17.293C14.2187 17.5097 14.8423 17.4791 15.3354 17.4058C15.8853 17.324 17.0282 16.7168 17.2669 16.0517C17.5053 15.3865 17.5053 14.8164 17.4336 14.6975C17.3623 14.5787 17.1714 14.5075 16.8854 14.3649Z" fill="white"/>
</svg>
